Coordinates
version=1
nRows=29
nColumns=24
inDegrees=yes

Units are S.I. units (second, meters, Newtons, ...)
Angles are in degrees.

endheader
time	pelvis_tilt	pelvis_list	pelvis_rotation	pelvis_tx	pelvis_ty	pelvis_tz	hip_flexion_r	hip_adduction_r	hip_rotation_r	knee_angle_r	ankle_angle_r	subtalar_angle_r	mtp_angle_r	hip_flexion_l	hip_adduction_l	hip_rotation_l	knee_angle_l	ankle_angle_l	subtalar_angle_l	mtp_angle_l	lumbar_extension	lumbar_bending	lumbar_rotation
      0.68700000	     -5.15164040	      5.69492809	      9.08380324	     -0.07809838	      0.96246084	      0.30170780	     37.16651177	    -10.90494518	     -8.11168626	     -4.01818738	      9.63057088	    -10.83869608	    -13.57237053	    -16.50183524	      5.41997675	      1.53282960	     -5.20534385	     11.01782948	     -0.78370416	      9.89185294	     -7.95654106	     -4.73722045	     -4.77812530
      0.69116667	     -5.10086510	      5.62678873	      9.18365518	     -0.07180822	      0.96173684	      0.30204722	     37.03679984	    -10.84104372	     -8.02280656	     -4.73023810	      9.72582691	    -10.82778477	    -13.53783638	    -16.78358171	      5.20371569	      1.49361255	     -5.45214176	     10.84906772	     -0.62404600	      9.94607173	     -7.98665739	     -4.56849189	     -4.87881711
      0.69533333	     -4.99227453	      5.51159912	      9.30665186	     -0.06544505	      0.96117770	      0.30237012	     36.78526188	    -10.73275267	     -8.00658212	     -5.34872833	      9.73497535	    -10.83772701	    -13.47327338	    -17.09944384	      4.91731442	      1.42240921	     -5.73585800	     10.66228467	     -0.43416146	     10.06992115	     -8.08133358	     -4.32948162	     -4.99906710
      0.69950000	     -4.98357300	      5.42512260	      9.42917512	     -0.05902639	      0.96047356	      0.30272162	     36.63478630	    -10.65015602	     -7.94958918	     -5.95558635	      9.71676522	    -10.90358711	    -13.44260124	    -17.31601470	      4.68029292	      1.42758563	     -6.01368971	     10.39616424	     -0.33260704	     10.12968304	     -8.05851763	     -4.15282213	     -5.04046405
      0.70366667	     -4.80197366	      5.25325215	      9.54193890	     -0.05250283	      0.96011885	      0.30309892	     36.22944116	    -10.45816213	     -8.01316502	     -6.42231005	      9.54867682	    -10.97737674	    -13.33165211	    -17.67791994	      4.31694207	      1.28174350	     -6.33899692	     10.19044881	     -0.11665390	     10.36112640	     -8.20474037	     -3.83472574	     -5.20530979
      0.70783333	     -4.70964281	      5.09865275	      9.65818627	     -0.04592774	      0.95966161	      0.30347706	     35.91023349	    -10.28404576	     -8.05444164	     -6.85473472	      9.30718720	    -11.13035592	    -13.19145917	    -17.94810113	      3.99104633	      1.21886520	     -6.65905834	      9.88595461	     -0.02049491	     10.65205758	     -8.24603286	     -3.56166201	     -5.27034364
      0.71200000	     -4.64641498	      4.96128063	      9.74710531	     -0.03931809	      0.95916814	      0.30393298	     35.62538902	    -10.10633490	     -8.07963635	     -7.25939448	      9.01025789	    -11.29247850	    -13.05417346	    -18.17183701	      3.69294828	      1.11344872	     -7.01222976	      9.55831947	      0.10692660	     10.93284927	     -8.24843111	     -3.31741492	     -5.34507516
      0.71616667	     -4.57088296	      4.79910746	      9.83842851	     -0.03268921	      0.95876876	      0.30442420	     35.29084228	     -9.89344168	     -8.10389385	     -7.56228951	      8.60227371	    -11.53521841	    -12.90137580	    -18.37107705	      3.36431764	      0.99001828	     -7.42463653	      9.20567563	      0.19615593	     11.24275761	     -8.26983608	     -3.04557086	     -5.39024938
      0.72033333	     -4.37328974	      4.62310404	      9.88360909	     -0.02605962	      0.95860702	      0.30505277	     34.81000119	     -9.61665244	     -8.11842778	     -7.77694878	      8.04774178	    -11.83121768	    -12.55989718	    -18.67866653	      2.99988452	      0.76120152	     -7.85659404	      8.83930537	      0.44493008	     11.91110105	     -8.44776517	     -2.75226619	     -5.43829092
      0.72450000	     -4.30106030	      4.43697221	      9.93324430	     -0.01936362	      0.95830869	      0.30565017	     34.45844954	     -9.34239688	     -8.12161779	     -7.94390881	      7.35360658	    -12.25670922	    -12.17584363	    -18.83390079	      2.65723248	      0.58676388	     -8.32659293	      8.41203664	      0.52320283	     12.64925858	     -8.45688552	     -2.46381827	     -5.46354853
      0.72866667	     -4.35211031	      4.23727500	      9.97682126	     -0.01255171	      0.95786760	      0.30614267	     34.25545562	     -9.08214915	     -8.17898441	     -8.12265789	      6.69481833	    -12.54341082	    -12.04681985	    -18.85157860	      2.34308573	      0.46232096	     -8.81374034	      7.89076261	      0.39993256	     12.89944463	     -8.28749425	     -2.16814254	     -5.42071770
      0.73283333	     -4.14086345	      4.00020794	      9.90504610	     -0.00581361	      0.95786522	      0.30705664	     33.75264102	     -8.65348406	     -8.09172277	     -8.14488481	      5.68596576	    -13.17411624	    -11.65626276	    -19.09972673	      1.94026045	      0.05946054	     -9.36257197	      7.45388735	      0.66929562	     13.62336432	     -8.46436680	     -1.81800764	     -5.41552257
      0.73700000	     -4.08796740	      3.78716474	      9.81018746	      0.00101354	      0.95766591	      0.30787797	     33.45724377	     -8.27350544	     -8.00997849	     -8.21019302	      4.66506841	    -13.74781603	     -7.04760237	    -19.18764294	      1.62400358	     -0.25440191	     -9.89161095	      6.73475055	      0.47560399	     21.95005494	     -8.43477522	     -1.51559256	     -5.13628382
      0.74116667	     -4.13765715	      3.54259095	      9.84133250	      0.00780874	      0.95746358	      0.30841091	     33.24567985	     -7.95882743	     -8.07492575	     -8.24511254	      3.56102824	    -14.31331005	     -7.04535256	    -19.09086144	      1.26838331	     -0.41870188	    -10.56544439	      6.16529116	      0.38217601	     21.99139509	     -8.26402503	     -1.17176208	     -5.19752145
      0.74533333	     -3.98148965	      3.26387452	      9.67207314	      0.01461793	      0.95754138	      0.30948056	     32.84915469	     -7.44509399	     -7.90896545	     -8.22526336	      2.24932667	    -15.12671361	     -6.97167833	    -19.20237615	      0.87001782	     -0.90369488	    -11.25181603	      5.59890941	      0.53727651	     22.16198282	     -8.36475785	     -0.79303471	     -5.09964221
      0.74950000	     -3.90791799	      2.96668604	      9.47960077	      0.02151348	      0.95755198	      0.31050566	     32.56374942	     -6.92529286	     -7.74126903	     -8.23639622	      0.97411452	    -15.88314334	     -6.82543210	    -19.21046348	      0.48749758	     -1.37442976	    -11.96794125	      4.89313161	      0.53432245	     22.46713011	     -8.34358050	     -0.40325145	     -4.86260596
      0.75366667	     -3.85731610	      2.69356871	      9.27109202	      0.02833211	      0.95758944	      0.31155814	     32.33903137	     -6.42946349	     -7.54541978	     -8.29280919	     -0.37211339	    -16.68626169	     -6.64641931	    -19.15363684	      0.14293272	     -1.83258254	    -12.76472925	      4.18922310	      0.46387181	     22.84302471	     -8.31399176	     -0.04763198	     -4.65569026
      0.75783333	     -3.83917000	      2.44330660	      9.08177607	      0.03506375	      0.95766830	      0.31251081	     32.17325616	     -5.98522546	     -7.36256583	     -8.39521234	     -1.74228549	    -17.45216850	     -6.51065387	    -19.01382055	     -0.16301770	     -2.19752726	    -13.65497527	      3.49682184	      0.22744813	     23.14570048	     -8.26259394	      0.28464766	     -4.45379254
      0.76200000	     -3.80165720	      2.15459035	      8.80445121	      0.04187921	      0.95779270	      0.31364990	     32.01932147	     -5.45311126	     -7.10314368	     -8.53578669	     -3.08978379	    -18.25268351	     -6.34777193	    -18.87648101	     -0.49750244	     -2.71164966	    -14.57897738	      2.71492588	      0.07059621	     23.51221202	     -8.22247810	      0.65111952	     -4.17967491
      0.76616667	     -3.75691442	      1.81222513	      8.38039734	      0.04884231	      0.95788783	      0.31510827	     31.90374345	     -4.78541213	     -6.70886585	     -8.74206452	     -4.30987830	    -19.02056965	     -6.03375270	    -18.74194387	     -0.86750419	     -3.47604100	    -15.53110768	      1.84153503	      0.03430993	     24.24405594	     -8.17001853	      1.05990357	     -3.74486270
      0.77033333	     -3.74772454	      1.51645351	      8.01124774	      0.05565386	      0.95803882	      0.31641100	     31.84740256	     -4.21262838	     -6.35183568	     -9.01539755	     -5.53037468	    -19.75625588	     -5.68971472	    -18.51066678	     -1.18598019	     -4.09204214	    -16.58943542	      0.97965989	     -0.18611110	     25.13749106	     -8.10805182	      1.41630479	     -3.40510712
      0.77450000	     -3.73330053	      1.26683742	      7.75293004	      0.06228008	      0.95834686	      0.31739824	     31.78921730	     -3.76876905	     -6.11101914	     -9.33905864	     -6.69463412	    -20.35386270	     -5.51538480	    -18.20980528	     -1.46693268	     -4.48208662	    -17.76536408	      0.11950834	     -0.62286073	     25.65350647	     -8.07706906	      1.74169510	     -3.16228899
      0.77866667	     -3.72271423	      0.92430702	      7.26004964	      0.06917113	      0.95850965	      0.31891234	     31.79976452	     -3.09699023	     -5.67992747	     -9.76913478	     -7.63819577	    -20.94244607	     -5.22980928	    -17.92762511	     -1.81944312	     -5.28141098	    -18.94707097	     -0.82546505	     -0.83967528	     26.56412761	     -8.00704032	      2.14642064	     -2.69956001
      0.78283333	     -3.79873143	      0.72044877	      6.85564059	      0.07579893	      0.95866135	      0.32017168	     31.93553551	     -2.64041975	     -5.29484761	    -10.30656196	     -8.51753391	    -21.38569837	     -3.79226998	    -17.48850487	     -2.01321833	     -5.81136069	    -20.21706102	     -1.84717483	     -1.46566485	     32.18518817	     -7.89653571	      2.38294538	     -2.37739670
      0.78700000	     -3.72340890	      0.35580888	      6.61919854	      0.08249084	      0.95921095	      0.32104151	     31.82563586	     -2.11508677	     -5.16763138	    -10.73774201	     -9.32981080	    -21.80129637	     -3.79808728	    -17.12087965	     -2.44932551	     -6.26007158	    -21.61344691	     -2.77882838	     -1.92564162	     32.21497585	     -7.91103107	      2.87418037	     -2.18722563
      0.79116667	     -3.67397834	      0.03690592	      6.21836510	      0.08916545	      0.95963032	      0.32232857	     31.80281650	     -1.53624496	     -4.83472451	    -11.26900675	    -10.04313972	    -22.19567451	     -3.80864115	    -16.72657092	     -2.81446532	     -6.88666025	    -23.04488823	     -3.75869604	     -2.37906500	     32.26022583	     -7.92333205	      3.26885867	     -1.87537787
      0.79533333	     -3.66496937	     -0.27851522	      5.81647974	      0.09580488	      0.96000811	      0.32363569	     31.82510588	     -0.96739958	     -4.48367732	    -11.82931256	    -10.62958172	    -22.47581742	     -3.82944231	    -16.24355601	     -3.18353437	     -7.50271856	    -24.55964082	     -4.75269230	     -2.87477971	     32.30252395	     -7.89382391	      3.63522892	     -1.53707287
      0.79950000	     -3.68496787	     -0.58730979	      5.34909688	      0.10243313	      0.96028001	      0.32511511	     31.91261826	     -0.37084809	     -4.09439205	    -12.47696597	    -11.05230549	    -22.70633291	     -3.87602125	    -15.70582470	     -3.54989428	     -8.20388485	    -26.14426933	     -5.69702678	     -3.36932976	     32.34381325	     -7.83815273	      3.99217827	     -1.16069690
      0.80366667	     -3.67849249	     -0.89676111	      4.99741988	      0.10898370	      0.96070706	      0.32630621	     31.93597377	      0.15012928	     -3.85299416	    -13.08803749	    -11.46635079	    -22.80986239	     -3.91833265	    -15.13541461	     -3.94137408	     -8.73119954	    -27.78676763	     -6.70816461	     -3.99658533	     32.33719991	     -7.81385541	      4.36350540	     -0.91608588
